<mxfile host="app.diagrams.net" modified="2023-05-17T22:57:19.975Z" agent="Mozilla/5.0 (Windows NT 10.0; Win64; x64) AppleWebKit/537.36 (KHTML, like Gecko) Chrome/113.0.0.0 Safari/537.36" etag="IH_i-9FM6UxA6GwpMEaX" version="21.3.2" type="device">
  <diagram id="C5RBs43oDa-KdzZeNtuy" name="Page-1">
    <mxGraphModel dx="1434" dy="764" grid="1" gridSize="10" guides="1" tooltips="1" connect="1" arrows="1" fold="1" page="1" pageScale="1" pageWidth="827" pageHeight="1169" math="0" shadow="0">
      <root>
        <mxCell id="WIyWlLk6GJQsqaUBKTNV-0" />
        <mxCell id="WIyWlLk6GJQsqaUBKTNV-1" parent="WIyWlLk6GJQsqaUBKTNV-0" />
        <mxCell id="YFkR13I8fVNWERzrTKHx-2" value="" style="edgeStyle=orthogonalEdgeStyle;rounded=0;orthogonalLoop=1;jettySize=auto;html=1;" edge="1" parent="WIyWlLk6GJQsqaUBKTNV-1" source="YFkR13I8fVNWERzrTKHx-0" target="YFkR13I8fVNWERzrTKHx-1">
          <mxGeometry relative="1" as="geometry" />
        </mxCell>
        <mxCell id="YFkR13I8fVNWERzrTKHx-0" value="I" style="ellipse;whiteSpace=wrap;html=1;aspect=fixed;" vertex="1" parent="WIyWlLk6GJQsqaUBKTNV-1">
          <mxGeometry x="360" y="20" width="50" height="50" as="geometry" />
        </mxCell>
        <mxCell id="YFkR13I8fVNWERzrTKHx-8" style="edgeStyle=orthogonalEdgeStyle;rounded=0;orthogonalLoop=1;jettySize=auto;html=1;exitX=0.5;exitY=1;exitDx=0;exitDy=0;" edge="1" parent="WIyWlLk6GJQsqaUBKTNV-1" source="YFkR13I8fVNWERzrTKHx-1" target="YFkR13I8fVNWERzrTKHx-3">
          <mxGeometry relative="1" as="geometry" />
        </mxCell>
        <mxCell id="YFkR13I8fVNWERzrTKHx-1" value="sucuVentaActual, numVendedor, diaVenta, tipoCliente, importeVenta&lt;br&gt;editorialLibro" style="verticalLabelPosition=middle;verticalAlign=middle;html=1;shape=trapezoid;perimeter=trapezoidPerimeter;whiteSpace=wrap;size=0.23;arcSize=10;flipV=1;labelPosition=center;align=center;" vertex="1" parent="WIyWlLk6GJQsqaUBKTNV-1">
          <mxGeometry x="115" y="110" width="540" height="60" as="geometry" />
        </mxCell>
        <mxCell id="YFkR13I8fVNWERzrTKHx-3" value="importeVenta != 0" style="swimlane;whiteSpace=wrap;html=1;" vertex="1" parent="WIyWlLk6GJQsqaUBKTNV-1">
          <mxGeometry x="35.5" y="210" width="699" height="750" as="geometry" />
        </mxCell>
        <mxCell id="YFkR13I8fVNWERzrTKHx-11" value="" style="edgeStyle=orthogonalEdgeStyle;rounded=0;orthogonalLoop=1;jettySize=auto;html=1;" edge="1" parent="YFkR13I8fVNWERzrTKHx-3" target="YFkR13I8fVNWERzrTKHx-10">
          <mxGeometry relative="1" as="geometry">
            <mxPoint x="314" y="70" as="sourcePoint" />
          </mxGeometry>
        </mxCell>
        <mxCell id="YFkR13I8fVNWERzrTKHx-9" value="sucursalVentaAnterior = sucursalVentaActual" style="rounded=0;whiteSpace=wrap;html=1;" vertex="1" parent="YFkR13I8fVNWERzrTKHx-3">
          <mxGeometry x="184" y="40" width="260" height="30" as="geometry" />
        </mxCell>
        <mxCell id="YFkR13I8fVNWERzrTKHx-13" style="edgeStyle=orthogonalEdgeStyle;rounded=0;orthogonalLoop=1;jettySize=auto;html=1;exitX=0.5;exitY=1;exitDx=0;exitDy=0;entryX=0.48;entryY=-0.004;entryDx=0;entryDy=0;entryPerimeter=0;" edge="1" parent="YFkR13I8fVNWERzrTKHx-3" source="YFkR13I8fVNWERzrTKHx-10" target="YFkR13I8fVNWERzrTKHx-12">
          <mxGeometry relative="1" as="geometry" />
        </mxCell>
        <mxCell id="YFkR13I8fVNWERzrTKHx-10" value="comisionTotal = 0" style="rounded=0;whiteSpace=wrap;html=1;" vertex="1" parent="YFkR13I8fVNWERzrTKHx-3">
          <mxGeometry x="254" y="100" width="120" height="20" as="geometry" />
        </mxCell>
        <mxCell id="YFkR13I8fVNWERzrTKHx-29" style="edgeStyle=orthogonalEdgeStyle;rounded=0;orthogonalLoop=1;jettySize=auto;html=1;exitX=0.5;exitY=1;exitDx=0;exitDy=0;entryX=0.5;entryY=1;entryDx=0;entryDy=0;" edge="1" parent="YFkR13I8fVNWERzrTKHx-3" source="YFkR13I8fVNWERzrTKHx-12" target="YFkR13I8fVNWERzrTKHx-28">
          <mxGeometry relative="1" as="geometry" />
        </mxCell>
        <mxCell id="YFkR13I8fVNWERzrTKHx-12" value="sucursalVentaActual == sucursalVentaAnterior &amp;amp;&amp;amp; importeVenta != 0" style="swimlane;whiteSpace=wrap;html=1;" vertex="1" parent="YFkR13I8fVNWERzrTKHx-3">
          <mxGeometry x="34.5" y="150" width="580" height="430" as="geometry" />
        </mxCell>
        <mxCell id="YFkR13I8fVNWERzrTKHx-18" value="" style="edgeStyle=orthogonalEdgeStyle;rounded=0;orthogonalLoop=1;jettySize=auto;html=1;" edge="1" parent="YFkR13I8fVNWERzrTKHx-12" source="YFkR13I8fVNWERzrTKHx-14" target="YFkR13I8fVNWERzrTKHx-16">
          <mxGeometry relative="1" as="geometry" />
        </mxCell>
        <mxCell id="YFkR13I8fVNWERzrTKHx-14" value="editorialLibro" style="rhombus;whiteSpace=wrap;html=1;" vertex="1" parent="YFkR13I8fVNWERzrTKHx-12">
          <mxGeometry x="240" y="50" width="90" height="80" as="geometry" />
        </mxCell>
        <mxCell id="YFkR13I8fVNWERzrTKHx-23" style="edgeStyle=orthogonalEdgeStyle;rounded=0;orthogonalLoop=1;jettySize=auto;html=1;exitX=0.5;exitY=1;exitDx=0;exitDy=0;entryX=0.429;entryY=-0.08;entryDx=0;entryDy=0;entryPerimeter=0;" edge="1" parent="YFkR13I8fVNWERzrTKHx-12" source="YFkR13I8fVNWERzrTKHx-15" target="YFkR13I8fVNWERzrTKHx-21">
          <mxGeometry relative="1" as="geometry" />
        </mxCell>
        <mxCell id="YFkR13I8fVNWERzrTKHx-15" value="A" style="ellipse;whiteSpace=wrap;html=1;aspect=fixed;" vertex="1" parent="YFkR13I8fVNWERzrTKHx-12">
          <mxGeometry x="80" y="150" width="40" height="40" as="geometry" />
        </mxCell>
        <mxCell id="YFkR13I8fVNWERzrTKHx-24" style="edgeStyle=orthogonalEdgeStyle;rounded=0;orthogonalLoop=1;jettySize=auto;html=1;exitX=0.5;exitY=1;exitDx=0;exitDy=0;entryX=0.219;entryY=0.02;entryDx=0;entryDy=0;entryPerimeter=0;" edge="1" parent="YFkR13I8fVNWERzrTKHx-12" source="YFkR13I8fVNWERzrTKHx-16" target="YFkR13I8fVNWERzrTKHx-20">
          <mxGeometry relative="1" as="geometry" />
        </mxCell>
        <mxCell id="YFkR13I8fVNWERzrTKHx-16" value="B" style="ellipse;whiteSpace=wrap;html=1;aspect=fixed;" vertex="1" parent="YFkR13I8fVNWERzrTKHx-12">
          <mxGeometry x="265" y="150" width="40" height="40" as="geometry" />
        </mxCell>
        <mxCell id="YFkR13I8fVNWERzrTKHx-27" style="edgeStyle=orthogonalEdgeStyle;rounded=0;orthogonalLoop=1;jettySize=auto;html=1;exitX=0.5;exitY=1;exitDx=0;exitDy=0;entryX=0.457;entryY=-0.167;entryDx=0;entryDy=0;entryPerimeter=0;" edge="1" parent="YFkR13I8fVNWERzrTKHx-12" source="YFkR13I8fVNWERzrTKHx-17" target="YFkR13I8fVNWERzrTKHx-25">
          <mxGeometry relative="1" as="geometry" />
        </mxCell>
        <mxCell id="YFkR13I8fVNWERzrTKHx-17" value="C" style="ellipse;whiteSpace=wrap;html=1;aspect=fixed;" vertex="1" parent="YFkR13I8fVNWERzrTKHx-12">
          <mxGeometry x="440" y="150" width="40" height="40" as="geometry" />
        </mxCell>
        <mxCell id="YFkR13I8fVNWERzrTKHx-19" value="" style="endArrow=none;html=1;rounded=0;exitX=0.5;exitY=0;exitDx=0;exitDy=0;entryX=0.3;entryY=0;entryDx=0;entryDy=0;entryPerimeter=0;" edge="1" parent="YFkR13I8fVNWERzrTKHx-12" source="YFkR13I8fVNWERzrTKHx-15" target="YFkR13I8fVNWERzrTKHx-17">
          <mxGeometry width="50" height="50" relative="1" as="geometry">
            <mxPoint x="320" y="160" as="sourcePoint" />
            <mxPoint x="400" y="140" as="targetPoint" />
            <Array as="points" />
          </mxGeometry>
        </mxCell>
        <mxCell id="YFkR13I8fVNWERzrTKHx-21" value="comisionTotal += importeVenta * 0.10" style="rounded=0;whiteSpace=wrap;html=1;" vertex="1" parent="YFkR13I8fVNWERzrTKHx-12">
          <mxGeometry x="30" y="225" width="150" height="30" as="geometry" />
        </mxCell>
        <mxCell id="YFkR13I8fVNWERzrTKHx-20" value="comisionTotal += importeVenta * 0.12" style="rounded=0;whiteSpace=wrap;html=1;" vertex="1" parent="YFkR13I8fVNWERzrTKHx-12">
          <mxGeometry x="240" y="225" width="121" height="30" as="geometry" />
        </mxCell>
        <mxCell id="YFkR13I8fVNWERzrTKHx-25" value="comisionTotal += importeVenta * 0.15" style="rounded=0;whiteSpace=wrap;html=1;" vertex="1" parent="YFkR13I8fVNWERzrTKHx-12">
          <mxGeometry x="400" y="225" width="140" height="30" as="geometry" />
        </mxCell>
        <mxCell id="YFkR13I8fVNWERzrTKHx-28" value="&quot;SUCURSAL&quot; , sucursalVentaAnterior&lt;br&gt;&lt;br&gt;comisionTotal" style="verticalLabelPosition=middle;verticalAlign=middle;html=1;shape=trapezoid;perimeter=trapezoidPerimeter;whiteSpace=wrap;size=0.23;arcSize=10;flipV=1;labelPosition=center;align=center;direction=west;" vertex="1" parent="YFkR13I8fVNWERzrTKHx-3">
          <mxGeometry x="141.5" y="620" width="366" height="60" as="geometry" />
        </mxCell>
      </root>
    </mxGraphModel>
  </diagram>
</mxfile>
